<svg xmlns="http://www.w3.org/2000/svg" width="1200" height="630" viewBox="0 0 1200 630">
  <!-- Background Gradient -->
  <defs>
    <linearGradient id="bgGradient" x1="0%" y1="0%" x2="100%" y2="100%">
      <stop offset="0%" style="stop-color:#0891B2;stop-opacity:1" />
      <stop offset="100%" style="stop-color:#0E7490;stop-opacity:1" />
    </linearGradient>
    <pattern id="grid" width="40" height="40" patternUnits="userSpaceOnUse">
      <path d="M 40 0 L 0 0 0 40" fill="none" stroke="white" stroke-width="0.5" opacity="0.1"/>
    </pattern>
  </defs>
  
  <!-- Background -->
  <rect width="1200" height="630" fill="url(#bgGradient)"/>
  <rect width="1200" height="630" fill="url(#grid)"/>
  
  <!-- White content area -->
  <rect x="50" y="50" width="1100" height="530" rx="20" fill="white" opacity="0.95"/>
  
  <!-- Logo Icon -->
  <g transform="translate(100, 100)">
    <circle cx="60" cy="60" r="50" fill="#0891B2" opacity="0.1"/>
    <g transform="translate(60, 60)">
      <!-- Thermometer -->
      <rect x="-10" y="-30" width="20" height="45" rx="10" fill="#0891B2"/>
      <rect x="-5" y="-20" width="10" height="30" rx="5" fill="#EF4444"/>
      <circle cx="0" cy="20" r="15" fill="#0891B2"/>
      <circle cx="0" cy="20" r="10" fill="#EF4444"/>
    </g>
  </g>
  
  <!-- Text Content -->
  <text x="250" y="140" font-family="system-ui, -apple-system, sans-serif" font-size="72" font-weight="bold" fill="#111827">
    HVACBase.org
  </text>
  
  <text x="250" y="200" font-family="system-ui, -apple-system, sans-serif" font-size="32" fill="#6B7280">
    Your Comprehensive HVAC Knowledge Resource
  </text>
  
  <!-- Feature Icons and Text -->
  <g transform="translate(250, 280)">
    <!-- Feature 1 -->
    <g>
      <circle cx="30" cy="30" r="25" fill="#0891B2" opacity="0.1"/>
      <text x="30" y="38" font-family="system-ui" font-size="24" text-anchor="middle" fill="#0891B2">📚</text>
      <text x="70" y="38" font-family="system-ui" font-size="20" fill="#374151">339+ Expert Articles</text>
    </g>
    
    <!-- Feature 2 -->
    <g transform="translate(0, 80)">
      <circle cx="30" cy="30" r="25" fill="#0891B2" opacity="0.1"/>
      <text x="30" y="38" font-family="system-ui" font-size="24" text-anchor="middle" fill="#0891B2">🔧</text>
      <text x="70" y="38" font-family="system-ui" font-size="20" fill="#374151">15+ Interactive Calculators</text>
    </g>
    
    <!-- Feature 3 -->
    <g transform="translate(0, 160)">
      <circle cx="30" cy="30" r="25" fill="#0891B2" opacity="0.1"/>
      <text x="30" y="38" font-family="system-ui" font-size="24" text-anchor="middle" fill="#0891B2">✓</text>
      <text x="70" y="38" font-family="system-ui" font-size="20" fill="#374151">100% Unbiased Information</text>
    </g>
  </g>
  
  <!-- Right Side Decorative Elements -->
  <g transform="translate(850, 250)">
    <!-- AC Unit Illustration -->
    <rect x="0" y="0" width="200" height="150" rx="10" fill="#0891B2" opacity="0.1"/>
    <rect x="20" y="20" width="160" height="110" rx="5" fill="white"/>
    <rect x="30" y="30" width="140" height="20" fill="#0891B2" opacity="0.3"/>
    <rect x="30" y="60" width="140" height="20" fill="#0891B2" opacity="0.3"/>
    <rect x="30" y="90" width="140" height="20" fill="#0891B2" opacity="0.3"/>
  </g>
  
  <!-- Website URL -->
  <text x="600" y="550" font-family="system-ui, -apple-system, sans-serif" font-size="24" font-weight="600" text-anchor="middle" fill="#0891B2">
    www.hvacbase.org
  </text>
</svg>